<svg preserveAspectRatio="none" width="100%" height="100%" overflow="visible" style="display: block;" viewBox="0 0 18.0684 18.0667" fill="none" xmlns="http://www.w3.org/2000/svg">
<g id="Phone">
<path id="Vector" d="M11.2849 16.7189L11.294 16.7253C12.0811 17.2264 13.0155 17.444 13.943 17.3422C14.8705 17.2403 15.7354 16.8251 16.3949 16.1651L16.9679 15.5921C17.0949 15.4653 17.1956 15.3146 17.2643 15.1488C17.333 14.9829 17.3684 14.8052 17.3684 14.6257C17.3684 14.4462 17.333 14.2685 17.2643 14.1026C17.1956 13.9368 17.0949 13.7861 16.9679 13.6593L14.5513 11.2445C14.4244 11.1175 14.2738 11.0168 14.108 10.9481C13.9421 10.8794 13.7644 10.844 13.5849 10.844C13.4054 10.844 13.2276 10.8794 13.0618 10.9481C12.896 11.0168 12.7453 11.1175 12.6184 11.2445C12.3622 11.5007 12.0148 11.6446 11.6525 11.6446C11.2902 11.6446 10.9427 11.5007 10.6865 11.2445L6.82251 7.37965C6.56637 7.12342 6.42247 6.77596 6.42247 6.41366C6.42247 6.05136 6.56637 5.70389 6.82251 5.44767C6.94948 5.32078 7.0502 5.17012 7.11892 5.0043C7.18764 4.83847 7.22301 4.66073 7.22301 4.48123C7.22301 4.30172 7.18764 4.12398 7.11892 3.95816C7.0502 3.79233 6.94948 3.64167 6.82251 3.51478L4.40686 1.10004C4.15063 0.843895 3.80317 0.7 3.44087 0.7C3.07857 0.7 2.7311 0.843895 2.47488 1.10004L1.90103 1.67298C1.24118 2.33262 0.826115 3.19764 0.724426 4.1251C0.622736 5.05256 0.840504 5.98697 1.34175 6.77391L1.34721 6.78302C3.99439 10.6996 7.36784 14.0724 11.2849 16.7189V16.7189Z" stroke="var(--stroke-0, #293132)" stroke-width="1.4" stroke-linecap="round" stroke-linejoin="round"/>
</g>
</svg>
