<svg preserveAspectRatio="none" width="100%" height="100%" overflow="visible" style="display: block;" viewBox="0 0 19 15" fill="none" xmlns="http://www.w3.org/2000/svg">
<g id="Social Media Icon Square/Twitter">
<path id="Twitter" d="M12.8766 0.0963804V0.0931387H13.7206L14.029 0.154731C14.2346 0.194717 14.4213 0.247119 14.589 0.311952C14.7567 0.376786 14.919 0.45243 15.0759 0.53887C15.2328 0.625309 15.3751 0.713386 15.5028 0.803067C15.6294 0.891678 15.743 0.985687 15.8437 1.08509C15.9432 1.18559 16.0985 1.21152 16.3095 1.16289C16.5205 1.11427 16.7477 1.04673 16.9912 0.960289C17.2346 0.873849 17.4754 0.776599 17.7134 0.668537C17.9515 0.560476 18.0965 0.491866 18.1484 0.46269C18.1993 0.432446 18.2263 0.416237 18.2296 0.414065L18.2328 0.409203L18.2491 0.401098L18.2653 0.392994L18.2815 0.38489L18.2977 0.376786L18.301 0.371923L18.3059 0.368682L18.3107 0.36544L18.314 0.360577L18.3302 0.355715L18.3464 0.352473L18.3432 0.376786L18.3383 0.401098L18.3302 0.425411L18.3221 0.449724L18.314 0.465932L18.3059 0.48214L18.2977 0.506453C18.2923 0.522662 18.2869 0.544267 18.2815 0.571287C18.2761 0.598306 18.2247 0.706351 18.1273 0.895455C18.0299 1.08456 17.9082 1.27635 17.7621 1.47085C17.616 1.66535 17.4851 1.8123 17.3694 1.91172C17.2525 2.01221 17.1751 2.08245 17.1372 2.12243C17.0994 2.16349 17.0534 2.2013 16.9993 2.23589L16.9181 2.28938L16.9019 2.29748L16.8857 2.30559L16.8824 2.31045L16.8775 2.31369L16.8727 2.31693L16.8694 2.32179L16.8532 2.3299L16.837 2.338L16.8337 2.34287L16.8289 2.34611L16.824 2.34935L16.8207 2.35421L16.8175 2.35907L16.8126 2.36232L16.8078 2.36556L16.8045 2.37042H16.8857L17.3401 2.27317C17.6431 2.20834 17.9325 2.13 18.2085 2.03815L18.6467 1.89227L18.6954 1.87606L18.7197 1.86796L18.736 1.85986L18.7522 1.85175L18.7684 1.84365L18.7847 1.83554L18.8171 1.83068L18.8496 1.82744V1.85986L18.8415 1.8631L18.8334 1.86796L18.8301 1.87282L18.8252 1.87606L18.8204 1.87931L18.8171 1.88417L18.8139 1.88903L18.809 1.89227L18.8041 1.89551L18.8009 1.90038L18.7977 1.90524L18.7928 1.90848L18.7847 1.92469L18.7766 1.9409L18.7717 1.94414C18.7695 1.94738 18.7008 2.03922 18.5656 2.21968C18.4303 2.40122 18.3573 2.49305 18.3464 2.49522C18.3356 2.49847 18.3205 2.51467 18.301 2.54385C18.2826 2.57409 18.1679 2.69459 17.9569 2.9053C17.7459 3.11601 17.5392 3.30347 17.3369 3.46773C17.1335 3.63306 17.0307 3.8362 17.0285 4.07717C17.0253 4.31705 17.0128 4.58828 16.9912 4.89083C16.9695 5.19339 16.9289 5.52025 16.8694 5.87144C16.8099 6.22262 16.7179 6.61973 16.5935 7.06275C16.4691 7.50578 16.3176 7.93801 16.139 8.35943C15.9605 8.78085 15.7738 9.15904 15.5791 9.49402C15.3843 9.82899 15.2058 10.1126 15.0435 10.345C14.8812 10.5773 14.7161 10.7961 14.5484 11.0014C14.3807 11.2067 14.1686 11.438 13.9122 11.6951C13.6547 11.9512 13.514 12.0917 13.4902 12.1165C13.4653 12.1403 13.3593 12.2289 13.172 12.3824C12.9859 12.5369 12.7858 12.6914 12.5715 12.8459C12.3583 12.9994 12.1625 13.1274 11.9839 13.2301C11.8054 13.3327 11.5901 13.4499 11.338 13.5818C11.0869 13.7147 10.8153 13.8379 10.5232 13.9513C10.231 14.0648 9.92263 14.1701 9.59801 14.2674C9.2734 14.3646 8.95961 14.4403 8.65663 14.4943C8.35366 14.5483 8.0101 14.5943 7.62597 14.6321L7.04977 14.6888V14.6969H5.99477V14.6888L5.85681 14.6807C5.76484 14.6753 5.68909 14.6699 5.62957 14.6645C5.57007 14.6591 5.34553 14.6294 4.95599 14.5754C4.56645 14.5213 4.26078 14.4673 4.03895 14.4133C3.81714 14.3592 3.4871 14.2566 3.04887 14.1053C2.61064 13.954 2.23571 13.8011 1.92407 13.6466C1.61353 13.4932 1.41876 13.3959 1.33976 13.3549C1.26186 13.3149 1.17421 13.2652 1.07682 13.2057L0.930746 13.1166L0.927516 13.1117L0.922631 13.1085L0.917762 13.1052L0.914516 13.1004L0.898285 13.0923L0.882054 13.0842L0.878824 13.0793L0.873938 13.0761L0.869069 13.0728L0.865823 13.068L0.862593 13.0631L0.857708 13.0599H0.849592V13.0274L0.865823 13.0307L0.882054 13.0356L0.955093 13.0437C1.00379 13.0491 1.13634 13.0572 1.35275 13.068C1.56917 13.0788 1.7991 13.0788 2.04256 13.068C2.28602 13.0572 2.53491 13.0328 2.78918 12.995C3.04347 12.9572 3.34374 12.8924 3.68999 12.8005C4.03626 12.7087 4.35438 12.5995 4.64438 12.4731C4.93329 12.3456 5.13887 12.2505 5.26115 12.1879C5.38233 12.1263 5.56736 12.0117 5.81623 11.8442L6.18954 11.593L6.19278 11.5881L6.19765 11.5849L6.20254 11.5817L6.20577 11.5768L6.20902 11.5719L6.21388 11.5687L6.21877 11.5654L6.222 11.5606L6.23823 11.5557L6.25446 11.5525L6.25771 11.5363L6.26258 11.5201L6.26746 11.5168L6.27069 11.512L6.14085 11.5039C6.05429 11.4985 5.97042 11.493 5.88927 11.4876C5.80811 11.4823 5.68098 11.4579 5.50784 11.4147C5.33472 11.3715 5.14807 11.3067 4.94788 11.2202C4.7477 11.1338 4.55293 11.0311 4.36357 10.9123C4.17422 10.7934 4.03733 10.6945 3.95293 10.6156C3.86962 10.5378 3.7614 10.4276 3.62831 10.285C3.49631 10.1413 3.3816 9.99377 3.28422 9.8425C3.18683 9.69122 3.09378 9.51669 3.00506 9.31896L2.87033 9.02397L2.86222 8.99966L2.8541 8.97535L2.84923 8.95914L2.84599 8.94293L2.87033 8.94617L2.89468 8.95103L3.07322 8.97535C3.19225 8.99155 3.37891 8.99695 3.63318 8.99155C3.88747 8.98616 4.0633 8.97535 4.16068 8.95914C4.25807 8.94293 4.31759 8.93212 4.33922 8.92672L4.37168 8.91862L4.41226 8.91051L4.45284 8.90241L4.45608 8.89755L4.46095 8.8943L4.46584 8.89106L4.46907 8.8862L4.43661 8.8781L4.40415 8.86999L4.37168 8.86189L4.33922 8.85378L4.30676 8.84568C4.28513 8.84028 4.24726 8.82947 4.19314 8.81326C4.13905 8.79705 3.99297 8.73762 3.75491 8.63497C3.51687 8.53232 3.32751 8.43236 3.18683 8.33511C3.04581 8.23758 2.91135 8.13092 2.78431 8.01581C2.65771 7.89911 2.51867 7.7489 2.36718 7.56521C2.21569 7.38153 2.08044 7.16811 1.9614 6.92498C1.84238 6.68186 1.75311 6.44954 1.6936 6.22802C1.63432 6.0078 1.59521 5.78266 1.57675 5.55537L1.54752 5.215L1.56375 5.21824L1.57998 5.2231L1.59621 5.2312L1.61244 5.23931L1.62867 5.24741L1.6449 5.25552L1.89648 5.36898C2.06421 5.44462 2.2725 5.50945 2.52137 5.56348C2.77025 5.6175 2.91902 5.64723 2.96772 5.65262L3.04076 5.66073H3.18683L3.1836 5.65586L3.17872 5.65262L3.17385 5.64938L3.1706 5.64452L3.16737 5.63966L3.16249 5.63641L3.15762 5.63317L3.15437 5.62831L3.13814 5.62021L3.12191 5.6121L3.11868 5.60724L3.11379 5.604L3.10892 5.60076L3.10568 5.59589L3.08945 5.58779L3.07322 5.57968L3.06999 5.57482C3.06674 5.57265 3.02021 5.53808 2.93039 5.47109C2.84165 5.40301 2.7486 5.31495 2.65122 5.20689C2.55383 5.09883 2.45645 4.98537 2.35906 4.86651C2.2615 4.74739 2.1746 4.61993 2.09937 4.48562C2.02363 4.35055 1.94355 4.17873 1.85915 3.97019C1.77584 3.76272 1.71254 3.55363 1.66925 3.34292C1.62598 3.13222 1.60163 2.92421 1.59621 2.7189C1.59081 2.51359 1.59621 2.338 1.61244 2.19213C1.62867 2.04625 1.66113 1.88146 1.70983 1.69777C1.75852 1.51408 1.82886 1.31958 1.92083 1.11427L2.05879 0.806309L2.06691 0.781996L2.07502 0.757683L2.07991 0.754442L2.08314 0.749579L2.08638 0.744717L2.09125 0.741475L2.09614 0.744717L2.09937 0.749579L2.10261 0.754442L2.10748 0.757683L2.11237 0.760925L2.1156 0.765788L2.11884 0.77065L2.12371 0.773892L2.13183 0.7901L2.13994 0.806309L2.14483 0.80955L2.14806 0.814413L2.36718 1.05754C2.51325 1.21962 2.68639 1.40062 2.88656 1.60052C3.08675 1.80042 3.19766 1.90415 3.21929 1.91172C3.24095 1.92036 3.26799 1.94521 3.30045 1.98628C3.33291 2.02627 3.44112 2.1219 3.62507 2.27317C3.80903 2.42444 4.04978 2.60004 4.34734 2.79994C4.64491 2.99984 4.97494 3.19705 5.33742 3.39155C5.69992 3.58605 6.08946 3.76164 6.50604 3.91832C6.92264 4.07501 7.21479 4.17766 7.3825 4.22628C7.55023 4.27491 7.83697 4.33703 8.24274 4.41268C8.64851 4.48832 8.9542 4.53695 9.15978 4.55856C9.36538 4.58016 9.50605 4.59259 9.58178 4.59583L9.6954 4.59908L9.69217 4.57476L9.68728 4.55045L9.65482 4.34785C9.63319 4.21278 9.62236 4.02368 9.62236 3.78055C9.62236 3.53743 9.6413 3.31321 9.67917 3.1079C9.71705 2.90259 9.77386 2.69459 9.84959 2.48388C9.92534 2.27317 9.99947 2.10405 10.072 1.97656C10.1455 1.85013 10.2418 1.70588 10.3609 1.54379C10.4799 1.38171 10.6341 1.21423 10.8234 1.04133C11.0128 0.868435 11.2292 0.714456 11.4727 0.579391C11.7161 0.444326 11.9407 0.341662 12.1463 0.271431C12.3519 0.2012 12.525 0.155266 12.6656 0.13366C12.8063 0.112054 12.8766 0.0996221 12.8766 0.0963804V0.0963804Z" fill="var(--fill-0, #293132)"/>
</g>
</svg>
