<svg preserveAspectRatio="none" width="100%" height="100%" overflow="visible" style="display: block;" viewBox="0 0 20 20" fill="none" xmlns="http://www.w3.org/2000/svg">
<path id="Vector (Stroke)" d="M18 10C18 7.87827 17.1575 5.84306 15.6572 4.34277C14.1569 2.84248 12.1217 2 10 2C7.87827 2 5.84306 2.84248 4.34277 4.34277C2.84248 5.84306 2 7.87827 2 10C2 11.0506 2.20734 12.0909 2.60938 13.0615C3.01141 14.0321 3.59995 14.9144 4.34277 15.6572C5.08559 16.4 5.96795 16.9886 6.93848 17.3906C7.90908 17.7927 8.94942 18 10 18C11.0506 18 12.0909 17.7927 13.0615 17.3906C14.0321 16.9886 14.9144 16.4 15.6572 15.6572C16.4 14.9144 16.9886 14.0321 17.3906 13.0615C17.7927 12.0909 18 11.0506 18 10ZM12 12C12 11.8858 11.9303 11.6606 11.5664 11.418C11.4117 11.3149 11.2205 11.2237 11 11.1523V12.8467C11.2203 12.7753 11.4118 12.6851 11.5664 12.582C11.9303 12.3394 12 12.1142 12 12ZM14 12C14 12.9908 13.3976 13.7649 12.6758 14.2461C12.1964 14.5656 11.6214 14.7886 11 14.9053V15C11 15.5523 10.5523 16 10 16C9.44771 16 9 15.5523 9 15V14.9072C8.05975 14.7305 7.2082 14.3036 6.64551 13.6553C6.28385 13.2383 6.32848 12.6071 6.74512 12.2451C7.16222 11.8831 7.79425 11.9276 8.15625 12.3447C8.31875 12.5319 8.60952 12.7188 9 12.8457V10.9053C8.37861 10.7886 7.80361 10.5656 7.32422 10.2461C6.6024 9.76494 6 8.99078 6 8C6 7.00922 6.6024 6.23506 7.32422 5.75391C7.80365 5.43432 8.37855 5.21045 9 5.09375V5C9 4.44772 9.44771 4 10 4C10.5523 4 11 4.44772 11 5V5.0918C11.9403 5.26854 12.7918 5.69635 13.3545 6.34473C13.7162 6.76169 13.6715 7.39289 13.2549 7.75488C12.8378 8.11688 12.2058 8.07238 11.8438 7.65527C11.6812 7.46805 11.3906 7.28024 11 7.15332V9.09375C11.6215 9.21045 12.1963 9.43432 12.6758 9.75391C13.3976 10.2351 14 11.0092 14 12ZM20 10C20 11.3132 19.7418 12.6139 19.2393 13.8271C18.7367 15.0404 17.9998 16.1427 17.0713 17.0713C16.1427 17.9998 15.0404 18.7367 13.8271 19.2393C12.6139 19.7418 11.3132 20 10 20C8.68678 20 7.38611 19.7418 6.17285 19.2393C4.95964 18.7367 3.85727 17.9998 2.92871 17.0713C2.00015 16.1427 1.26329 15.0404 0.760742 13.8271C0.258195 12.6139 0 11.3132 0 10C5.96046e-08 7.34784 1.05335 4.80407 2.92871 2.92871C4.80407 1.05335 7.34784 0 10 0C12.6522 0 15.1959 1.05335 17.0713 2.92871C18.9467 4.80407 20 7.34784 20 10ZM8 8C8 8.11422 8.06966 8.33944 8.43359 8.58203C8.58821 8.68508 8.77967 8.77535 9 8.84668V7.15234C8.77955 7.22369 8.58828 7.31487 8.43359 7.41797C8.06966 7.66056 8 7.88578 8 8Z" fill="var(--fill-0, #293132)"/>
</svg>
