<svg preserveAspectRatio="none" width="100%" height="100%" overflow="visible" style="display: block;" viewBox="0 0 18.0667 13.9" fill="none" xmlns="http://www.w3.org/2000/svg">
<g id="Email">
<path id="Vector" d="M17.3667 2.78333V11.1167C17.3667 11.6692 17.1472 12.1991 16.7565 12.5898C16.3658 12.9805 15.8359 13.2 15.2833 13.2H2.78333C2.2308 13.2 1.70089 12.9805 1.31019 12.5898C0.919493 12.1991 0.7 11.6692 0.7 11.1167V2.78333" stroke="var(--stroke-0, #293132)" stroke-width="1.4" stroke-linecap="round" stroke-linejoin="round"/>
<path id="Vector_2" d="M17.3667 2.78333C17.3667 2.2308 17.1472 1.7009 16.7565 1.31019C16.3658 0.919493 15.8359 0.7 15.2833 0.7H2.78333C2.2308 0.7 1.70089 0.919493 1.31019 1.31019C0.919493 1.7009 0.7 2.2308 0.7 2.78333L7.92917 7.29722C8.26027 7.50417 8.64287 7.61389 9.03333 7.61389C9.42379 7.61389 9.80639 7.50417 10.1375 7.29722L17.3667 2.78333Z" stroke="var(--stroke-0, #293132)" stroke-width="1.4" stroke-linecap="round" stroke-linejoin="round"/>
</g>
</svg>
