<svg preserveAspectRatio="none" width="100%" height="100%" overflow="visible" style="display: block;" viewBox="0 0 13.7847 13.2423" fill="none" xmlns="http://www.w3.org/2000/svg">
<path id="Vector (Stroke)" d="M5.62492 0.920558C6.02455 -0.305807 7.76157 -0.308116 8.16072 0.921209L9.17309 4.03644H12.4491C13.7428 4.03644 14.2755 5.68989 13.2336 6.44855L13.233 6.4492L10.5826 8.37433L11.5943 11.4902L11.6269 11.6048C11.9067 12.7808 10.5553 13.7179 9.54289 12.9811V12.9805L6.8925 11.056L4.24145 12.9805L4.2421 12.9811C3.19674 13.7418 1.79105 12.7176 2.19067 11.4902L3.20239 8.37433V8.37368L0.552 6.4492C-0.493226 5.68928 0.0452234 4.03648 1.33585 4.03644H4.6119L5.62427 0.921209L5.62492 0.920558ZM5.88013 4.4492L5.87947 4.44986C5.79223 4.71734 5.62283 4.95064 5.3951 5.11587C5.1674 5.28105 4.8932 5.36981 4.6119 5.36978H1.33585V5.37043L3.98625 7.29556V7.29621C4.21397 7.46176 4.38368 7.6951 4.47062 7.96288C4.54666 8.19719 4.55643 8.4473 4.49927 8.68553L4.47062 8.78644L3.4589 11.9017L6.10864 9.9772L6.19588 9.91861C6.40491 9.79053 6.64599 9.72265 6.8925 9.72264C7.17412 9.72264 7.44853 9.81164 7.67635 9.9772L10.3267 11.9023L9.31437 8.78644C9.22742 8.51882 9.22752 8.23053 9.31437 7.96288C9.40131 7.6951 9.57103 7.46176 9.79875 7.29621V7.29556L12.4491 5.36978H9.17179C8.89072 5.36951 8.61666 5.2804 8.38924 5.11522C8.16187 4.95001 7.99266 4.71707 7.90552 4.44986V4.4492L6.8925 1.33332L5.88013 4.4492Z" fill="var(--fill-0, white)"/>
</svg>
